<svg xmlns="http://www.w3.org/2000/svg" viewBox="0 0 1600 1200" width="1600" height="1200">
<style>
@font-face { font-family: "Plate Sans"; font-weight: 500; src: url("../fonts/inter-latin-500-normal.woff2") format("woff2"); }
@font-face { font-family: "Plate Sans"; font-weight: 700; src: url("../fonts/inter-latin-700-normal.woff2") format("woff2"); }
svg {
  --bg: #F6F7F9;
  --ink: #1C2530;
  --skin-hi: #F7E3D4; --skin: #EDCDB8; --skin-lo: #D9AE95; --skin-deep: #C48F75;
  --lid-line: #7A4E3E; --lash: #3B2A24; --brow: #6B4A3A;
  --sclera: #FBFBF8; --sclera-shade: #E4E2DC;
  --iris-hi: #7FA7A1; --iris: #4F7C78; --iris-lo: #2E4F4D; --pupil: #141A1C;
  --caruncle: #E39A95;
  --bone: #EFE6D2; --bone-edge: #A8977A;
  --deep-grey: #8B8F96;
  --target: #0E8C98; --target-fill: rgba(14, 140, 152, 0.38);
  --danger: #D8432A; --danger-soft: #F08A73;
  --halo: rgba(246, 247, 249, 0.92);
  font-family: "Plate Sans", "Inter", "Helvetica Neue", Arial, sans-serif;
}
/* Dark mode: plates are full-bleed, so labels sit on the art, not on the page.
   Keep the label colours and dim the art a little so it does not glare in a
   dark card. A plate that leaves open background would override --bg here. */
svg.dark { --bg: #16191E; }
svg.dark #anatomy { filter: brightness(0.86) saturate(0.95); }
.plate-bg { fill: var(--bg); }
.label text { font-size: 56px; font-weight: 500; fill: var(--ink); paint-order: stroke; stroke: var(--halo); stroke-width: 14px; stroke-linejoin: round; }
.label.emphasis text { font-weight: 700; fill: var(--target); }
.leader { fill: none; stroke: var(--ink); stroke-width: 3; }
.label.emphasis .leader { stroke: var(--target); stroke-width: 4; }
.leader-halo { fill: none; stroke: var(--halo); stroke-width: 11; stroke-linecap: round; }
.leader-dot { fill: var(--ink); stroke: var(--halo); stroke-width: 4; }
.label.emphasis .leader-dot { fill: var(--target); }
.plate-bg { fill: #F4F1EA; }</style>
<defs>
<linearGradient id="fat" x1="0" y1="0" x2="0" y2="1"><stop offset="0" stop-color="#F6DC8E"/><stop offset="1" stop-color="#EBC565"/></linearGradient>
<linearGradient id="deep-fat" x1="0" y1="0" x2="0" y2="1"><stop offset="0" stop-color="#EFD386"/><stop offset="1" stop-color="#E2BC5E"/></linearGradient>
<linearGradient id="muscle" x1="0" y1="0" x2="0" y2="1"><stop offset="0" stop-color="#B8483F"/><stop offset="1" stop-color="#8A2D28"/></linearGradient>
<radialGradient id="artery-grad" cx="0.4" cy="0.35" r="0.7"><stop offset="0" stop-color="#E26B61"/><stop offset="1" stop-color="#A82A24"/></radialGradient>
<radialGradient id="vein-grad" cx="0.4" cy="0.35" r="0.7"><stop offset="0" stop-color="#6F8FC0"/><stop offset="1" stop-color="#34528A"/></radialGradient>
<linearGradient id="probe-grad" x1="0" y1="0" x2="0" y2="1"><stop offset="0" stop-color="#9AA2AB"/><stop offset="1" stop-color="#6E7780"/></linearGradient>
<clipPath id="frame"><rect x="0" y="0" width="1600" height="1200"/></clipPath>
</defs>
<rect class="plate-bg" width="1600" height="1200"/>

<g id="anatomy" clip-path="url(#frame)" data-base-sha256="269d5e4812dcba871704dca21d097f3056a273a4d530e6c895aa2f7d2791968a">
  <image href="base.jpg" x="0" y="0.2" width="1600" height="1199.7" preserveAspectRatio="none"/>
  <g id="layout" opacity="0">
  <path id="skin" d="M1740,130 C1738.4,46 1711.9,130 1708.7,130 C1705.6,130 1680.6,130 1677.5,130 C1674.3,130 1649.3,130 1646.2,130 C1643.1,130 1618.1,130 1614.9,130 C1611.8,130 1586.8,130 1583.7,130 C1580.5,130 1555.5,130 1552.4,130 C1549.3,130 1524.3,130 1521.1,130 C1518,130 1493,130 1489.9,130 C1486.7,130 1461.7,130 1458.6,130 C1455.5,130 1430.5,130 1427.3,130 C1424.2,130 1399.2,130 1396.1,130 C1392.9,130 1367.9,130 1364.8,130 C1361.7,130 1336.7,130 1333.5,130 C1330.4,130 1305.4,130 1302.3,130 C1299.1,130 1274.1,130 1271,130 C1267.9,130 1242.9,130 1239.7,130 C1236.6,130 1211.6,130 1208.5,130 C1205.3,130 1180.3,130 1177.2,130 C1174.1,130 1149.1,130 1145.9,130 C1142.8,130 1117.8,130 1114.7,130 C1111.5,130 1086.5,130 1083.4,130 C1080.3,130 1055.3,130 1052.1,130 C1049,130 1024,130 1020.9,130 C1017.7,130 992.7,130 989.6,130 C986.5,130 961.5,130 958.3,130 C955.2,130 930.2,130 927.1,130 C923.9,130 898.9,130 895.8,130 C892.7,130 867.7,130 864.5,130 C861.4,130 836.4,130 833.3,130 C830.1,130 805.1,130 802,130 C798.9,130 773.9,130 770.7,130 C767.6,130 742.6,130 739.5,130 C736.3,130 711.3,130 708.2,130 C705.1,130 680.1,130 676.9,130 C673.8,130 648.8,130 645.7,130 C642.5,130 617.5,130 614.4,130 C611.3,130 586.3,130 583.1,130 C580,130 555,130 551.9,130 C548.7,130 523.7,130 520.6,130 C517.5,130 492.5,130 489.3,130 C486.2,130 461.2,130 458.1,130 C454.9,130 429.9,130 426.8,130 C423.7,130 398.7,130 395.5,130 C392.4,130 367.4,130 364.3,130 C361.1,130 336.1,130 333,130 C329.9,130 304.9,130 301.7,130 C298.6,130 273.6,130 270.5,130 C267.3,130 242.3,130 239.2,130 C236.1,130 211.1,130 207.9,130 C204.8,130 179.8,130 176.7,130 C173.5,130 148.5,130 145.4,130 C142.3,130 117.3,130 114.1,130 C111,130 86,130 82.9,130 C79.7,130 54.7,130 51.6,130 C48.5,130 23.5,130 20.3,130 C17.2,130 -7.8,130 -10.9,130 C-14.1,130 -39.1,130 -42.2,130 C-45.3,130 -70.3,130 -73.5,130 C-76.6,130 -101.6,130 -104.7,130 C-107.9,130 -134.4,46 -136,130 C-137.6,214 -137.6,1726 -136,1810 C-134.4,1894 -107.9,1810 -104.7,1810 C-101.6,1810 -76.6,1810 -73.5,1810 C-70.3,1810 -45.3,1810 -42.2,1810 C-39.1,1810 -14.1,1810 -10.9,1810 C-7.8,1810 17.2,1810 20.3,1810 C23.5,1810 48.5,1810 51.6,1810 C54.7,1810 79.7,1810 82.9,1810 C86,1810 111,1810 114.1,1810 C117.3,1810 142.3,1810 145.4,1810 C148.5,1810 173.5,1810 176.7,1810 C179.8,1810 204.8,1810 207.9,1810 C211.1,1810 236.1,1810 239.2,1810 C242.3,1810 267.3,1810 270.5,1810 C273.6,1810 298.6,1810 301.7,1810 C304.9,1810 329.9,1810 333,1810 C336.1,1810 361.1,1810 364.3,1810 C367.4,1810 392.4,1810 395.5,1810 C398.7,1810 423.7,1810 426.8,1810 C429.9,1810 454.9,1810 458.1,1810 C461.2,1810 486.2,1810 489.3,1810 C492.5,1810 517.5,1810 520.6,1810 C523.7,1810 548.7,1810 551.9,1810 C555,1810 580,1810 583.1,1810 C586.3,1810 611.3,1810 614.4,1810 C617.5,1810 642.5,1810 645.7,1810 C648.8,1810 673.8,1810 676.9,1810 C680.1,1810 705.1,1810 708.2,1810 C711.3,1810 736.3,1810 739.5,1810 C742.6,1810 767.6,1810 770.7,1810 C773.9,1810 798.9,1810 802,1810 C805.1,1810 830.1,1810 833.3,1810 C836.4,1810 861.4,1810 864.5,1810 C867.7,1810 892.7,1810 895.8,1810 C898.9,1810 923.9,1810 927.1,1810 C930.2,1810 955.2,1810 958.3,1810 C961.5,1810 986.5,1810 989.6,1810 C992.7,1810 1017.7,1810 1020.9,1810 C1024,1810 1049,1810 1052.1,1810 C1055.3,1810 1080.3,1810 1083.4,1810 C1086.5,1810 1111.5,1810 1114.7,1810 C1117.8,1810 1142.8,1810 1145.9,1810 C1149.1,1810 1174.1,1810 1177.2,1810 C1180.3,1810 1205.3,1810 1208.5,1810 C1211.6,1810 1236.6,1810 1239.7,1810 C1242.9,1810 1267.9,1810 1271,1810 C1274.1,1810 1299.1,1810 1302.3,1810 C1305.4,1810 1330.4,1810 1333.5,1810 C1336.7,1810 1361.7,1810 1364.8,1810 C1367.9,1810 1392.9,1810 1396.1,1810 C1399.2,1810 1424.2,1810 1427.3,1810 C1430.5,1810 1455.5,1810 1458.6,1810 C1461.7,1810 1486.7,1810 1489.9,1810 C1493,1810 1518,1810 1521.1,1810 C1524.3,1810 1549.3,1810 1552.4,1810 C1555.5,1810 1580.5,1810 1583.7,1810 C1586.8,1810 1611.8,1810 1614.9,1810 C1618.1,1810 1643.1,1810 1646.2,1810 C1649.3,1810 1674.3,1810 1677.5,1810 C1680.6,1810 1705.6,1810 1708.7,1810 C1711.9,1810 1738.4,1894 1740,1810 C1741.6,1726 1741.6,214 1740,130 Z" fill="#E7BFA7"/>
  <path id="subcutaneous-fat" d="M1740,174.8 C1738.4,93 1711.9,174.8 1708.7,174.8 C1705.6,174.8 1680.6,174.8 1677.5,174.8 C1674.3,174.8 1649.3,174.8 1646.2,174.8 C1643.1,174.8 1618.1,174.8 1614.9,174.8 C1611.8,174.8 1586.8,174.8 1583.7,174.8 C1580.5,174.8 1555.5,174.8 1552.4,174.8 C1549.3,174.8 1524.3,174.8 1521.1,174.8 C1518,174.8 1493,174.8 1489.9,174.8 C1486.7,174.8 1461.7,174.8 1458.6,174.8 C1455.5,174.8 1430.5,174.8 1427.3,174.8 C1424.2,174.8 1399.2,174.8 1396.1,174.8 C1392.9,174.8 1367.9,174.8 1364.8,174.8 C1361.7,174.8 1336.7,174.8 1333.5,174.8 C1330.4,174.8 1305.4,174.8 1302.3,174.8 C1299.1,174.8 1274.1,174.8 1271,174.8 C1267.9,174.8 1242.9,174.8 1239.7,174.8 C1236.6,174.8 1211.6,174.8 1208.5,174.8 C1205.3,174.8 1180.3,174.8 1177.2,174.8 C1174.1,174.8 1149.1,174.8 1145.9,174.8 C1142.8,174.8 1117.8,174.8 1114.7,174.8 C1111.5,174.8 1086.5,174.8 1083.4,174.8 C1080.3,174.8 1055.3,174.8 1052.1,174.8 C1049,174.8 1024,174.8 1020.9,174.8 C1017.7,174.8 992.7,174.8 989.6,174.8 C986.5,174.8 961.5,174.8 958.3,174.8 C955.2,174.8 930.2,174.8 927.1,174.8 C923.9,174.8 898.9,174.8 895.8,174.8 C892.7,174.8 867.7,174.8 864.5,174.8 C861.4,174.8 836.4,174.8 833.3,174.8 C830.1,174.8 805.1,174.8 802,174.8 C798.9,174.8 773.9,174.8 770.7,174.8 C767.6,174.8 742.6,174.8 739.5,174.8 C736.3,174.8 711.3,174.8 708.2,174.8 C705.1,174.8 680.1,174.8 676.9,174.8 C673.8,174.8 648.8,174.8 645.7,174.8 C642.5,174.8 617.5,174.8 614.4,174.8 C611.3,174.8 586.3,174.8 583.1,174.8 C580,174.8 555,174.8 551.9,174.8 C548.7,174.8 523.7,174.8 520.6,174.8 C517.5,174.8 492.5,174.8 489.3,174.8 C486.2,174.8 461.2,174.8 458.1,174.8 C454.9,174.8 429.9,174.8 426.8,174.8 C423.7,174.8 398.7,174.8 395.5,174.8 C392.4,174.8 367.4,174.8 364.3,174.8 C361.1,174.8 336.1,174.8 333,174.8 C329.9,174.8 304.9,174.8 301.7,174.8 C298.6,174.8 273.6,174.8 270.5,174.8 C267.3,174.8 242.3,174.8 239.2,174.8 C236.1,174.8 211.1,174.8 207.9,174.8 C204.8,174.8 179.8,174.8 176.7,174.8 C173.5,174.8 148.5,174.8 145.4,174.8 C142.3,174.8 117.3,174.8 114.1,174.8 C111,174.8 86,174.8 82.9,174.8 C79.7,174.8 54.7,174.8 51.6,174.8 C48.5,174.8 23.5,174.8 20.3,174.8 C17.2,174.8 -7.8,174.8 -10.9,174.8 C-14.1,174.8 -39.1,174.8 -42.2,174.8 C-45.3,174.8 -70.3,174.8 -73.5,174.8 C-76.6,174.8 -101.6,174.8 -104.7,174.8 C-107.9,174.8 -134.4,93 -136,174.8 C-137.6,256.6 -137.6,1728.2 -136,1810 C-134.4,1891.8 -107.9,1810 -104.7,1810 C-101.6,1810 -76.6,1810 -73.5,1810 C-70.3,1810 -45.3,1810 -42.2,1810 C-39.1,1810 -14.1,1810 -10.9,1810 C-7.8,1810 17.2,1810 20.3,1810 C23.5,1810 48.5,1810 51.6,1810 C54.7,1810 79.7,1810 82.9,1810 C86,1810 111,1810 114.1,1810 C117.3,1810 142.3,1810 145.4,1810 C148.5,1810 173.5,1810 176.7,1810 C179.8,1810 204.8,1810 207.9,1810 C211.1,1810 236.1,1810 239.2,1810 C242.3,1810 267.3,1810 270.5,1810 C273.6,1810 298.6,1810 301.7,1810 C304.9,1810 329.9,1810 333,1810 C336.1,1810 361.1,1810 364.3,1810 C367.4,1810 392.4,1810 395.5,1810 C398.7,1810 423.7,1810 426.8,1810 C429.9,1810 454.9,1810 458.1,1810 C461.2,1810 486.2,1810 489.3,1810 C492.5,1810 517.5,1810 520.6,1810 C523.7,1810 548.7,1810 551.9,1810 C555,1810 580,1810 583.1,1810 C586.3,1810 611.3,1810 614.4,1810 C617.5,1810 642.5,1810 645.7,1810 C648.8,1810 673.8,1810 676.9,1810 C680.1,1810 705.1,1810 708.2,1810 C711.3,1810 736.3,1810 739.5,1810 C742.6,1810 767.6,1810 770.7,1810 C773.9,1810 798.9,1810 802,1810 C805.1,1810 830.1,1810 833.3,1810 C836.4,1810 861.4,1810 864.5,1810 C867.7,1810 892.7,1810 895.8,1810 C898.9,1810 923.9,1810 927.1,1810 C930.2,1810 955.2,1810 958.3,1810 C961.5,1810 986.5,1810 989.6,1810 C992.7,1810 1017.7,1810 1020.9,1810 C1024,1810 1049,1810 1052.1,1810 C1055.3,1810 1080.3,1810 1083.4,1810 C1086.5,1810 1111.5,1810 1114.7,1810 C1117.8,1810 1142.8,1810 1145.9,1810 C1149.1,1810 1174.1,1810 1177.2,1810 C1180.3,1810 1205.3,1810 1208.5,1810 C1211.6,1810 1236.6,1810 1239.7,1810 C1242.9,1810 1267.9,1810 1271,1810 C1274.1,1810 1299.1,1810 1302.3,1810 C1305.4,1810 1330.4,1810 1333.5,1810 C1336.7,1810 1361.7,1810 1364.8,1810 C1367.9,1810 1392.9,1810 1396.1,1810 C1399.2,1810 1424.2,1810 1427.3,1810 C1430.5,1810 1455.5,1810 1458.6,1810 C1461.7,1810 1486.7,1810 1489.9,1810 C1493,1810 1518,1810 1521.1,1810 C1524.3,1810 1549.3,1810 1552.4,1810 C1555.5,1810 1580.5,1810 1583.7,1810 C1586.8,1810 1611.8,1810 1614.9,1810 C1618.1,1810 1643.1,1810 1646.2,1810 C1649.3,1810 1674.3,1810 1677.5,1810 C1680.6,1810 1705.6,1810 1708.7,1810 C1711.9,1810 1738.4,1891.8 1740,1810 C1741.6,1728.2 1741.6,256.6 1740,174.8 Z" fill="url(#fat)"/>
  <path d="M1740,367 C1738.4,294.8 1711.9,366 1708.7,365.9 C1705.6,365.8 1680.6,364.9 1677.5,364.8 C1674.3,364.7 1649.3,363.8 1646.2,363.7 C1643.1,363.6 1618.1,362.8 1614.9,362.6 C1611.8,362.5 1586.8,361.7 1583.7,361.5 C1580.5,361.4 1555.5,360.6 1552.4,360.5 C1549.3,360.3 1524.3,359.5 1521.1,359.4 C1518,359.3 1493,358.4 1489.9,358.3 C1486.7,358.2 1461.7,357.3 1458.6,357.2 C1455.5,357.1 1430.5,356.2 1427.3,356.1 C1424.2,356 1399.2,355.1 1396.1,355 C1392.9,354.9 1367.9,354 1364.8,353.9 C1361.7,353.8 1336.7,352.9 1333.5,352.8 C1330.4,352.7 1305.4,351.8 1302.3,351.7 C1299.1,351.6 1274.1,350.7 1271,350.6 C1267.9,350.5 1242.9,349.6 1239.7,349.5 C1236.6,349.4 1211.6,348.5 1208.5,348.4 C1205.3,348.3 1180.3,347.4 1177.2,347.3 C1174.1,347.2 1149.1,346.3 1145.9,346.2 C1142.8,346.1 1117.8,345.2 1114.7,345.1 C1111.5,345 1086.5,344.1 1083.4,344 C1080.3,343.9 1055.3,343.1 1052.1,342.9 C1049,342.8 1024,342 1020.9,341.9 C1017.7,341.7 992.7,340.9 989.6,340.8 C986.5,340.6 961.5,339.8 958.3,339.7 C955.2,339.6 930.2,338.7 927.1,338.6 C923.9,338.5 898.9,337.6 895.8,337.5 C892.7,337.4 867.7,336.5 864.5,336.4 C861.4,336.3 836.4,335.4 833.3,335.3 C830.1,335.2 805.1,334.3 802,334.2 C798.9,334.1 773.9,333.2 770.7,333.1 C767.6,333 742.6,332.1 739.5,332 C736.3,331.9 711.3,331 708.2,330.9 C705.1,330.8 680.1,329.9 676.9,329.8 C673.8,329.7 648.8,328.8 645.7,328.7 C642.5,328.6 617.5,327.7 614.4,327.6 C611.3,327.5 586.3,326.6 583.1,326.5 C580,326.4 555,325.5 551.9,325.4 C548.7,325.3 523.7,324.5 520.6,324.3 C517.5,324.2 492.5,323.4 489.3,323.2 C486.2,323.1 461.2,322.3 458.1,322.2 C454.9,322 429.9,321.2 426.8,321.1 C423.7,320.9 398.7,320.1 395.5,320 C392.4,319.9 367.4,319 364.3,318.9 C361.1,318.8 336.1,317.9 333,317.8 C329.9,317.7 304.9,316.8 301.7,316.7 C298.6,316.6 273.6,315.7 270.5,315.6 C267.3,315.5 242.3,314.6 239.2,314.5 C236.1,314.4 211.1,313.5 207.9,313.4 C204.8,313.3 179.8,312.4 176.7,312.3 C173.5,312.2 148.5,311.3 145.4,311.2 C142.3,311.1 117.3,310.2 114.1,310.1 C111,310 86,309.1 82.9,309 C79.7,308.9 54.7,308 51.6,307.9 C48.5,307.8 23.5,306.9 20.3,306.8 C17.2,306.7 -7.8,305.8 -10.9,305.7 C-14.1,305.6 -39.1,304.8 -42.2,304.6 C-45.3,304.5 -70.3,303.7 -73.5,303.5 C-76.6,303.4 -101.6,302.6 -104.7,302.5 C-107.9,302.3 -134.4,226 -136,301.4 C-137.6,376.7 -137.6,1734.6 -136,1810 C-134.4,1885.4 -107.9,1810 -104.7,1810 C-101.6,1810 -76.6,1810 -73.5,1810 C-70.3,1810 -45.3,1810 -42.2,1810 C-39.1,1810 -14.1,1810 -10.9,1810 C-7.8,1810 17.2,1810 20.3,1810 C23.5,1810 48.5,1810 51.6,1810 C54.7,1810 79.7,1810 82.9,1810 C86,1810 111,1810 114.1,1810 C117.3,1810 142.3,1810 145.4,1810 C148.5,1810 173.5,1810 176.7,1810 C179.8,1810 204.8,1810 207.9,1810 C211.1,1810 236.1,1810 239.2,1810 C242.3,1810 267.3,1810 270.5,1810 C273.6,1810 298.6,1810 301.7,1810 C304.9,1810 329.9,1810 333,1810 C336.1,1810 361.1,1810 364.3,1810 C367.4,1810 392.4,1810 395.5,1810 C398.7,1810 423.7,1810 426.8,1810 C429.9,1810 454.9,1810 458.1,1810 C461.2,1810 486.2,1810 489.3,1810 C492.5,1810 517.5,1810 520.6,1810 C523.7,1810 548.7,1810 551.9,1810 C555,1810 580,1810 583.1,1810 C586.3,1810 611.3,1810 614.4,1810 C617.5,1810 642.5,1810 645.7,1810 C648.8,1810 673.8,1810 676.9,1810 C680.1,1810 705.1,1810 708.2,1810 C711.3,1810 736.3,1810 739.5,1810 C742.6,1810 767.6,1810 770.7,1810 C773.9,1810 798.9,1810 802,1810 C805.1,1810 830.1,1810 833.3,1810 C836.4,1810 861.4,1810 864.5,1810 C867.7,1810 892.7,1810 895.8,1810 C898.9,1810 923.9,1810 927.1,1810 C930.2,1810 955.2,1810 958.3,1810 C961.5,1810 986.5,1810 989.6,1810 C992.7,1810 1017.7,1810 1020.9,1810 C1024,1810 1049,1810 1052.1,1810 C1055.3,1810 1080.3,1810 1083.4,1810 C1086.5,1810 1111.5,1810 1114.7,1810 C1117.8,1810 1142.8,1810 1145.9,1810 C1149.1,1810 1174.1,1810 1177.2,1810 C1180.3,1810 1205.3,1810 1208.5,1810 C1211.6,1810 1236.6,1810 1239.7,1810 C1242.9,1810 1267.9,1810 1271,1810 C1274.1,1810 1299.1,1810 1302.3,1810 C1305.4,1810 1330.4,1810 1333.5,1810 C1336.7,1810 1361.7,1810 1364.8,1810 C1367.9,1810 1392.9,1810 1396.1,1810 C1399.2,1810 1424.2,1810 1427.3,1810 C1430.5,1810 1455.5,1810 1458.6,1810 C1461.7,1810 1486.7,1810 1489.9,1810 C1493,1810 1518,1810 1521.1,1810 C1524.3,1810 1549.3,1810 1552.4,1810 C1555.5,1810 1580.5,1810 1583.7,1810 C1586.8,1810 1611.8,1810 1614.9,1810 C1618.1,1810 1643.1,1810 1646.2,1810 C1649.3,1810 1674.3,1810 1677.5,1810 C1680.6,1810 1705.6,1810 1708.7,1810 C1711.9,1810 1738.4,1882.1 1740,1810 C1741.6,1737.9 1741.6,439.2 1740,367 Z" fill="url(#deep-fat)"/>
  <path id="iliopsoas" d="M-136,625.6 C-134.4,587.3 -120.4,625.2 -117.3,625.1 C-114.2,625.1 -101.8,624.7 -98.7,624.7 C-95.6,624.6 -83.1,624.3 -80,624.2 C-76.9,624.1 -64.4,623.8 -61.3,623.7 C-58.2,623.7 -45.8,623.3 -42.7,623.3 C-39.6,623.2 -27.1,622.9 -24,622.8 C-20.9,622.7 -8.4,622.4 -5.3,622.3 C-2.2,622.3 10.2,621.9 13.3,621.9 C16.4,621.8 28.9,621.5 32,621.4 C35.1,621.3 47.6,621 50.7,620.9 C53.8,620.9 66.2,620.5 69.3,620.5 C72.4,620.4 84.9,620.2 88,620 C91.1,619.8 103.6,618.8 106.7,618.6 C109.8,618.4 122.2,612.8 125.3,617.2 C128.4,621.6 140.9,665.6 144,671.6 C147.1,677.6 159.6,687.4 162.7,689.4 C165.8,691.3 178.2,694.5 181.3,694.8 C184.4,695.1 196.9,694.1 200,693.1 C203.1,692.1 215.6,690 218.7,683 C221.8,676 234.2,615.1 237.3,608.8 C240.4,602.5 252.9,607.6 256,607.4 C259.1,607.2 271.6,606.2 274.7,606 C277.8,605.8 290.2,604.8 293.3,604.6 C296.4,604.4 308.9,603.5 312,603.2 C315.1,602.8 327.6,600.9 330.7,600.4 C333.8,599.9 346.2,598.1 349.3,597.6 C352.4,597.1 364.9,595.3 368,594.8 C371.1,594.3 383.6,592.5 386.7,592 C389.8,591.5 402.2,589.7 405.3,589.2 C408.4,588.7 420.9,586.9 424,586.4 C427.1,585.9 439.6,584.1 442.7,583.6 C445.8,583.1 458.2,581.3 461.3,580.8 C464.4,580.3 476.9,578.5 480,578 C483.1,577.5 495.6,575.7 498.7,575.2 C501.8,574.7 514.2,572.9 517.3,572.4 C520.4,571.9 532.9,570.1 536,569.6 C539.1,569.1 551.6,567.1 554.7,566.6 C557.8,566.1 570.2,564 573.3,563.5 C576.4,563 588.9,561 592,560.5 C595.1,560 607.6,558 610.7,557.5 C613.8,557 626.2,554.9 629.3,554.4 C632.4,553.9 644.9,551.9 648,551.4 C651.1,550.9 663.6,548.9 666.7,548.4 C669.8,547.9 682.2,540.3 685.3,545.3 C688.4,550.3 700.9,601.8 704,608.4 C707.1,614.9 719.6,622.3 722.7,624.5 C725.8,626.6 738.2,632.7 741.3,634 C744.4,635.4 756.9,639.7 760,640.7 C763.1,641.6 775.6,644.7 778.7,645.4 C781.8,646.1 794.2,648.2 797.3,648.6 C800.4,649 812.9,650.3 816,650.6 C819.1,650.8 831.6,651.3 834.7,651.3 C837.8,651.4 850.2,651.2 853.3,651 C856.4,650.9 868.9,649.9 872,649.5 C875.1,649.2 887.6,647.4 890.7,646.9 C893.8,646.3 906.2,643.6 909.3,642.8 C912.4,642 924.9,638.1 928,637 C931.1,635.8 943.6,630.5 946.7,628.8 C949.8,627 962.2,622.5 965.3,616.2 C968.4,609.8 979.9,552.7 984,552.8 C988.1,552.9 1008.7,601.6 1014.8,617.2 C1020.9,632.8 1050,716.8 1056.8,740.4 C1063.6,764 1091.3,871.3 1096,900 C1100.7,928.7 1215.5,1069.4 1112.8,1084.8 C1010.1,1100.2 -31.9,1123.1 -136,1084.8 C-240.1,1046.5 -137.6,663.9 -136,625.6 Z" fill="url(#muscle)" stroke="#6E221E" stroke-width="3"/>
  <path id="muscle-surface" d="M-136,625.6 C-134.1,625.6 -121.1,625.2 -117.3,625.1 C-113.6,625 -102.4,624.8 -98.7,624.7 C-94.9,624.6 -83.7,624.3 -80,624.2 C-76.3,624.1 -65.1,623.8 -61.3,623.7 C-57.6,623.6 -46.4,623.4 -42.7,623.3 C-38.9,623.2 -27.7,622.9 -24,622.8 C-20.3,622.7 -9.1,622.4 -5.3,622.3 C-1.6,622.2 9.6,622 13.3,621.9 C17.1,621.8 28.3,621.5 32,621.4 C35.7,621.3 46.9,621 50.7,620.9 C54.4,620.8 65.6,620.6 69.3,620.5 C73.1,620.4 84.3,620.2 88,620 C91.7,619.8 102.9,618.9 106.7,618.6 C110.4,618.3 121.6,611.9 125.3,617.2 C129.1,622.5 140.3,664.4 144,671.6 C147.7,678.8 158.9,687 162.7,689.4 C166.4,691.7 177.6,694.5 181.3,694.8 C185.1,695.2 196.3,694.3 200,693.1 C203.7,691.9 214.9,691.4 218.7,683 C222.4,674.5 233.6,616.4 237.3,608.8 C241.1,601.2 252.3,607.7 256,607.4 C259.7,607.1 270.9,606.3 274.7,606 C278.4,605.7 289.6,604.9 293.3,604.6 C297.1,604.3 308.3,603.6 312,603.2 C315.7,602.8 326.9,601 330.7,600.4 C334.4,599.8 345.6,598.2 349.3,597.6 C353.1,597 364.3,595.4 368,594.8 C371.7,594.2 382.9,592.6 386.7,592 C390.4,591.4 401.6,589.8 405.3,589.2 C409.1,588.6 420.3,587 424,586.4 C427.7,585.8 438.9,584.2 442.7,583.6 C446.4,583 457.6,581.4 461.3,580.8 C465.1,580.2 476.3,578.6 480,578 C483.7,577.4 494.9,575.8 498.7,575.2 C502.4,574.6 513.6,573 517.3,572.4 C521.1,571.8 532.3,570.2 536,569.6 C539.7,569 550.9,567.2 554.7,566.6 C558.4,566 569.6,564.1 573.3,563.5 C577.1,562.9 588.3,561.1 592,560.5 C595.7,559.9 606.9,558.1 610.7,557.5 C614.4,556.9 625.6,555 629.3,554.4 C633.1,553.8 644.3,552 648,551.4 C651.7,550.8 662.9,549 666.7,548.4 C670.4,547.8 681.6,539.3 685.3,545.3 C689.1,551.3 700.3,600.4 704,608.4 C707.7,616.3 718.9,621.9 722.7,624.5 C726.4,627 737.6,632.4 741.3,634 C745.1,635.7 756.3,639.6 760,640.7 C763.7,641.8 774.9,644.6 778.7,645.4 C782.4,646.2 793.6,648.1 797.3,648.6 C801.1,649.1 812.3,650.3 816,650.6 C819.7,650.8 830.9,651.3 834.7,651.3 C838.4,651.4 849.6,651.2 853.3,651 C857.1,650.8 868.3,650 872,649.5 C875.7,649.1 886.9,647.5 890.7,646.9 C894.4,646.2 905.6,643.8 909.3,642.8 C913.1,641.8 924.3,638.4 928,637 C931.7,635.6 942.9,630.8 946.7,628.8 C950.4,626.7 961.6,623.8 965.3,616.2 C969.1,608.6 979.1,552.7 984,552.8 C988.9,552.9 1007.5,598.4 1014.8,617.2 C1022.1,636 1048.7,712.1 1056.8,740.4 C1064.9,768.7 1090.4,865.6 1096,900 C1101.6,934.4 1111.1,1066.3 1112.8,1084.8" fill="none" stroke="#E9CFC6" stroke-width="4"/>
  <path id="sartorius" d="M340,471.6 C334.4,455.4 230.8,408 200,398.8 C169.2,389.6 65.6,380.9 32,379.2 C-1.6,377.5 -119.2,360.4 -136,382 C-152.8,403.6 -158.4,574.1 -136,594.8 C-113.6,615.5 48.8,592.6 88,589.2 C127.2,585.8 230.8,573 256,561.2 C281.2,549.4 345.6,487.8 340,471.6 Z" fill="url(#muscle)" stroke="#6E221E" stroke-width="3"/>
  <path id="bone" d="M1740,1096 C1738.4,1060.3 1711.9,1096 1708.7,1096 C1705.6,1096 1680.6,1096 1677.5,1096 C1674.3,1096 1649.3,1096 1646.2,1096 C1643.1,1096 1618.1,1096 1614.9,1096 C1611.8,1096 1586.8,1096 1583.7,1096 C1580.5,1096 1555.5,1096 1552.4,1096 C1549.3,1096 1524.3,1096 1521.1,1096 C1518,1096 1493,1096 1489.9,1096 C1486.7,1096 1461.7,1096 1458.6,1096 C1455.5,1096 1430.5,1096 1427.3,1096 C1424.2,1096 1399.2,1096 1396.1,1096 C1392.9,1096 1367.9,1096 1364.8,1096 C1361.7,1096 1336.7,1096 1333.5,1096 C1330.4,1096 1305.4,1096 1302.3,1096 C1299.1,1096 1274.1,1096 1271,1096 C1267.9,1096 1242.9,1096 1239.7,1096 C1236.6,1096 1211.6,1096 1208.5,1096 C1205.3,1096 1180.3,1096 1177.2,1096 C1174.1,1096 1149.1,1096 1145.9,1096 C1142.8,1096 1117.8,1096 1114.7,1096 C1111.5,1096 1086.5,1096 1083.4,1096 C1080.3,1096 1055.3,1096 1052.1,1096 C1049,1096 1024,1096 1020.9,1096 C1017.7,1096 992.7,1096 989.6,1096 C986.5,1096 961.5,1096 958.3,1096 C955.2,1096 930.2,1096 927.1,1096 C923.9,1096 898.9,1096 895.8,1096 C892.7,1096 867.7,1096 864.5,1096 C861.4,1096 836.4,1096 833.3,1096 C830.1,1096 805.1,1096 802,1096 C798.9,1096 773.9,1096 770.7,1096 C767.6,1096 742.6,1096 739.5,1096 C736.3,1096 711.3,1096 708.2,1096 C705.1,1096 680.1,1096 676.9,1096 C673.8,1096 648.8,1096 645.7,1096 C642.5,1096 617.5,1096 614.4,1096 C611.3,1096 586.3,1096 583.1,1096 C580,1096 555,1096 551.9,1096 C548.7,1096 523.7,1096 520.6,1096 C517.5,1096 492.5,1096 489.3,1096 C486.2,1096 461.2,1096 458.1,1096 C454.9,1096 429.9,1096 426.8,1096 C423.7,1096 398.7,1096 395.5,1096 C392.4,1096 367.4,1096 364.3,1096 C361.1,1096 336.1,1096 333,1096 C329.9,1096 304.9,1096 301.7,1096 C298.6,1096 273.6,1096 270.5,1096 C267.3,1096 242.3,1096 239.2,1096 C236.1,1096 211.1,1096 207.9,1096 C204.8,1096 179.8,1096 176.7,1096 C173.5,1096 148.5,1096 145.4,1096 C142.3,1096 117.3,1096 114.1,1096 C111,1096 86,1096 82.9,1096 C79.7,1096 54.7,1096 51.6,1096 C48.5,1096 23.5,1096 20.3,1096 C17.2,1096 -7.8,1096 -10.9,1096 C-14.1,1096 -39.1,1096 -42.2,1096 C-45.3,1096 -70.3,1096 -73.5,1096 C-76.6,1096 -101.6,1096 -104.7,1096 C-107.9,1096 -134.4,1060.3 -136,1096 C-137.6,1131.7 -137.6,1774.3 -136,1810 C-134.4,1845.7 -107.9,1810 -104.7,1810 C-101.6,1810 -76.6,1810 -73.5,1810 C-70.3,1810 -45.3,1810 -42.2,1810 C-39.1,1810 -14.1,1810 -10.9,1810 C-7.8,1810 17.2,1810 20.3,1810 C23.5,1810 48.5,1810 51.6,1810 C54.7,1810 79.7,1810 82.9,1810 C86,1810 111,1810 114.1,1810 C117.3,1810 142.3,1810 145.4,1810 C148.5,1810 173.5,1810 176.7,1810 C179.8,1810 204.8,1810 207.9,1810 C211.1,1810 236.1,1810 239.2,1810 C242.3,1810 267.3,1810 270.5,1810 C273.6,1810 298.6,1810 301.7,1810 C304.9,1810 329.9,1810 333,1810 C336.1,1810 361.1,1810 364.3,1810 C367.4,1810 392.4,1810 395.5,1810 C398.7,1810 423.7,1810 426.8,1810 C429.9,1810 454.9,1810 458.1,1810 C461.2,1810 486.2,1810 489.3,1810 C492.5,1810 517.5,1810 520.6,1810 C523.7,1810 548.7,1810 551.9,1810 C555,1810 580,1810 583.1,1810 C586.3,1810 611.3,1810 614.4,1810 C617.5,1810 642.5,1810 645.7,1810 C648.8,1810 673.8,1810 676.9,1810 C680.1,1810 705.1,1810 708.2,1810 C711.3,1810 736.3,1810 739.5,1810 C742.6,1810 767.6,1810 770.7,1810 C773.9,1810 798.9,1810 802,1810 C805.1,1810 830.1,1810 833.3,1810 C836.4,1810 861.4,1810 864.5,1810 C867.7,1810 892.7,1810 895.8,1810 C898.9,1810 923.9,1810 927.1,1810 C930.2,1810 955.2,1810 958.3,1810 C961.5,1810 986.5,1810 989.6,1810 C992.7,1810 1017.7,1810 1020.9,1810 C1024,1810 1049,1810 1052.1,1810 C1055.3,1810 1080.3,1810 1083.4,1810 C1086.5,1810 1111.5,1810 1114.7,1810 C1117.8,1810 1142.8,1810 1145.9,1810 C1149.1,1810 1174.1,1810 1177.2,1810 C1180.3,1810 1205.3,1810 1208.5,1810 C1211.6,1810 1236.6,1810 1239.7,1810 C1242.9,1810 1267.9,1810 1271,1810 C1274.1,1810 1299.1,1810 1302.3,1810 C1305.4,1810 1330.4,1810 1333.5,1810 C1336.7,1810 1361.7,1810 1364.8,1810 C1367.9,1810 1392.9,1810 1396.1,1810 C1399.2,1810 1424.2,1810 1427.3,1810 C1430.5,1810 1455.5,1810 1458.6,1810 C1461.7,1810 1486.7,1810 1489.9,1810 C1493,1810 1518,1810 1521.1,1810 C1524.3,1810 1549.3,1810 1552.4,1810 C1555.5,1810 1580.5,1810 1583.7,1810 C1586.8,1810 1611.8,1810 1614.9,1810 C1618.1,1810 1643.1,1810 1646.2,1810 C1649.3,1810 1674.3,1810 1677.5,1810 C1680.6,1810 1705.6,1810 1708.7,1810 C1711.9,1810 1738.4,1845.7 1740,1810 C1741.6,1774.3 1741.6,1131.7 1740,1096 Z" fill="#EFE6D2" stroke="#A8977A" stroke-width="6"/>
  <path id="fascia-lata" d="M1740,367 C1734.8,366.8 1719.2,366.3 1708.7,365.9 C1698.3,365.6 1687.9,365.2 1677.5,364.8 C1667,364.5 1656.6,364.1 1646.2,363.7 C1635.8,363.4 1625.4,363 1614.9,362.6 C1604.5,362.3 1594.1,361.9 1583.7,361.5 C1573.2,361.2 1562.8,360.8 1552.4,360.5 C1542,360.1 1531.6,359.7 1521.1,359.4 C1510.7,359 1500.3,358.6 1489.9,358.3 C1479.4,357.9 1469,357.5 1458.6,357.2 C1448.2,356.8 1437.8,356.4 1427.3,356.1 C1416.9,355.7 1406.5,355.3 1396.1,355 C1385.6,354.6 1375.2,354.3 1364.8,353.9 C1354.4,353.5 1344,353.2 1333.5,352.8 C1323.1,352.4 1312.7,352.1 1302.3,351.7 C1291.8,351.3 1281.4,351 1271,350.6 C1260.6,350.2 1250.2,349.9 1239.7,349.5 C1229.3,349.1 1218.9,348.8 1208.5,348.4 C1198,348.1 1187.6,347.7 1177.2,347.3 C1166.8,347 1156.4,346.6 1145.9,346.2 C1135.5,345.9 1125.1,345.5 1114.7,345.1 C1104.2,344.8 1093.8,344.4 1083.4,344 C1073,343.7 1062.6,343.3 1052.1,342.9 C1041.7,342.6 1031.3,342.2 1020.9,341.9 C1010.4,341.5 1000,341.1 989.6,340.8 C979.2,340.4 968.8,340 958.3,339.7 C947.9,339.3 937.5,338.9 927.1,338.6 C916.6,338.2 906.2,337.8 895.8,337.5 C885.4,337.1 875,336.7 864.5,336.4 C854.1,336 843.7,335.6 833.3,335.3 C822.8,334.9 812.4,334.6 802,334.2 C791.6,333.8 781.2,333.5 770.7,333.1 C760.3,332.7 749.9,332.4 739.5,332 C729,331.6 718.6,331.3 708.2,330.9 C697.8,330.5 687.4,330.2 676.9,329.8 C666.5,329.4 656.1,329.1 645.7,328.7 C635.2,328.4 624.8,328 614.4,327.6 C604,327.3 593.6,326.9 583.1,326.5 C572.7,326.2 562.3,325.8 551.9,325.4 C541.4,325.1 531,324.7 520.6,324.3 C510.2,324 499.8,323.6 489.3,323.2 C478.9,322.9 468.5,322.5 458.1,322.2 C447.6,321.8 437.2,321.4 426.8,321.1 C416.4,320.7 406,320.3 395.5,320 C385.1,319.6 374.7,319.2 364.3,318.9 C353.8,318.5 343.4,318.1 333,317.8 C322.6,317.4 312.2,317 301.7,316.7 C291.3,316.3 280.9,316 270.5,315.6 C260,315.2 249.6,314.9 239.2,314.5 C228.8,314.1 218.4,313.8 207.9,313.4 C197.5,313 187.1,312.7 176.7,312.3 C166.2,311.9 155.8,311.6 145.4,311.2 C135,310.8 124.6,310.5 114.1,310.1 C103.7,309.7 93.3,309.4 82.9,309 C72.4,308.7 62,308.3 51.6,307.9 C41.2,307.6 30.8,307.2 20.3,306.8 C9.9,306.5 -0.5,306.1 -10.9,305.7 C-21.4,305.4 -31.8,305 -42.2,304.6 C-52.6,304.3 -63,303.9 -73.5,303.5 C-83.9,303.2 -94.3,302.8 -104.7,302.5 C-115.2,302.1 -130.8,301.5 -136,301.4" fill="none" stroke="#F8F6F0" stroke-width="10"/>
  <path d="M1740,367 C1734.8,366.8 1719.2,366.3 1708.7,365.9 C1698.3,365.6 1687.9,365.2 1677.5,364.8 C1667,364.5 1656.6,364.1 1646.2,363.7 C1635.8,363.4 1625.4,363 1614.9,362.6 C1604.5,362.3 1594.1,361.9 1583.7,361.5 C1573.2,361.2 1562.8,360.8 1552.4,360.5 C1542,360.1 1531.6,359.7 1521.1,359.4 C1510.7,359 1500.3,358.6 1489.9,358.3 C1479.4,357.9 1469,357.5 1458.6,357.2 C1448.2,356.8 1437.8,356.4 1427.3,356.1 C1416.9,355.7 1406.5,355.3 1396.1,355 C1385.6,354.6 1375.2,354.3 1364.8,353.9 C1354.4,353.5 1344,353.2 1333.5,352.8 C1323.1,352.4 1312.7,352.1 1302.3,351.7 C1291.8,351.3 1281.4,351 1271,350.6 C1260.6,350.2 1250.2,349.9 1239.7,349.5 C1229.3,349.1 1218.9,348.8 1208.5,348.4 C1198,348.1 1187.6,347.7 1177.2,347.3 C1166.8,347 1156.4,346.6 1145.9,346.2 C1135.5,345.9 1125.1,345.5 1114.7,345.1 C1104.2,344.8 1093.8,344.4 1083.4,344 C1073,343.7 1062.6,343.3 1052.1,342.9 C1041.7,342.6 1031.3,342.2 1020.9,341.9 C1010.4,341.5 1000,341.1 989.6,340.8 C979.2,340.4 968.8,340 958.3,339.7 C947.9,339.3 937.5,338.9 927.1,338.6 C916.6,338.2 906.2,337.8 895.8,337.5 C885.4,337.1 875,336.7 864.5,336.4 C854.1,336 843.7,335.6 833.3,335.3 C822.8,334.9 812.4,334.6 802,334.2 C791.6,333.8 781.2,333.5 770.7,333.1 C760.3,332.7 749.9,332.4 739.5,332 C729,331.6 718.6,331.3 708.2,330.9 C697.8,330.5 687.4,330.2 676.9,329.8 C666.5,329.4 656.1,329.1 645.7,328.7 C635.2,328.4 624.8,328 614.4,327.6 C604,327.3 593.6,326.9 583.1,326.5 C572.7,326.2 562.3,325.8 551.9,325.4 C541.4,325.1 531,324.7 520.6,324.3 C510.2,324 499.8,323.6 489.3,323.2 C478.9,322.9 468.5,322.5 458.1,322.2 C447.6,321.8 437.2,321.4 426.8,321.1 C416.4,320.7 406,320.3 395.5,320 C385.1,319.6 374.7,319.2 364.3,318.9 C353.8,318.5 343.4,318.1 333,317.8 C322.6,317.4 312.2,317 301.7,316.7 C291.3,316.3 280.9,316 270.5,315.6 C260,315.2 249.6,314.9 239.2,314.5 C228.8,314.1 218.4,313.8 207.9,313.4 C197.5,313 187.1,312.7 176.7,312.3 C166.2,311.9 155.8,311.6 145.4,311.2 C135,310.8 124.6,310.5 114.1,310.1 C103.7,309.7 93.3,309.4 82.9,309 C72.4,308.7 62,308.3 51.6,307.9 C41.2,307.6 30.8,307.2 20.3,306.8 C9.9,306.5 -0.5,306.1 -10.9,305.7 C-21.4,305.4 -31.8,305 -42.2,304.6 C-52.6,304.3 -63,303.9 -73.5,303.5 C-83.9,303.2 -94.3,302.8 -104.7,302.5 C-115.2,302.1 -130.8,301.5 -136,301.4" fill="none" stroke="#9E927C" stroke-width="3"/>
  <path id="fascia-iliaca" d="M-136,611.6 C-106.1,610.9 28.3,609 88,606 C147.7,603 252.3,595.9 312,589.2 C371.7,582.5 476.3,564.9 536,555.6 C595.7,546.3 711.5,525.2 760,519.2 C808.5,513.2 870.1,508.2 900,510.8 C929.9,513.4 966.8,525.4 984,538.8 C1001.2,552.2 1016.1,585.8 1028.8,611.6 C1041.5,637.4 1067.3,695.4 1079.2,732 C1091.1,768.6 1110.2,839.3 1118.4,886 C1126.6,932.7 1137.8,1055.9 1140.8,1082" fill="none" stroke="#F8F6F0" stroke-width="11"/>
  <path d="M-136,611.6 C-106.1,610.9 28.3,609 88,606 C147.7,603 252.3,595.9 312,589.2 C371.7,582.5 476.3,564.9 536,555.6 C595.7,546.3 711.5,525.2 760,519.2 C808.5,513.2 870.1,508.2 900,510.8 C929.9,513.4 966.8,525.4 984,538.8 C1001.2,552.2 1016.1,585.8 1028.8,611.6 C1041.5,637.4 1067.3,695.4 1079.2,732 C1091.1,768.6 1110.2,839.3 1118.4,886 C1126.6,932.7 1137.8,1055.9 1140.8,1082" fill="none" stroke="#9E927C" stroke-width="3"/>
  <ellipse cx="838.4" cy="586.4" rx="117.6" ry="44.8" transform="rotate(-6 838.4 586.4)" id="femoral-nerve" fill="#EFCB5A" stroke="#B8962E" stroke-width="4"/>
  <ellipse cx="186" cy="650.8" rx="30.8" ry="30.8" transform="rotate(-0 186 650.8)" id="lfcn" fill="#EFCB5A" stroke="#B8962E" stroke-width="3"/>
  <ellipse cx="1516" cy="606" rx="168" ry="145.6" transform="rotate(-0 1516 606)" id="femoral-vein" fill="url(#vein-grad)" stroke="#2F4A78" stroke-width="4"/>
  <ellipse cx="1208" cy="516.4" rx="134.4" ry="134.4" transform="rotate(-0 1208 516.4)" id="femoral-artery" fill="url(#artery-grad)" stroke="#8E211D" stroke-width="6"/>
  <line x1="0" y1="130" x2="1600" y2="130" stroke="#B98A74" stroke-width="4"/>
  </g>
</g>

<g class="marking">
  <path id="spread" d="M116,609.5 C117.8,608.7 133.9,608.2 137.5,607.9 C141.1,607.6 155.4,606.5 159,606.3 C162.6,606 176.9,604.9 180.5,604.7 C184.1,604.4 198.4,603.3 202,603.1 C205.5,602.8 219.9,601.7 223.4,601.4 C227,601.2 241.4,600.1 244.9,599.8 C248.5,599.6 262.8,598.5 266.4,598.2 C270,597.9 284.3,596.9 287.9,596.6 C291.5,596.3 305.8,595.4 309.4,595 C313,594.6 327.3,592.5 330.9,592 C334.5,591.4 348.8,589.3 352.4,588.7 C356,588.2 370.3,586.1 373.9,585.5 C377.5,585 391.8,582.8 395.4,582.3 C399,581.8 413.3,579.6 416.9,579.1 C420.4,578.5 434.8,576.4 438.3,575.8 C441.9,575.3 456.3,573.2 459.8,572.6 C463.4,572.1 477.7,569.9 481.3,569.4 C484.9,568.9 499.2,566.7 502.8,566.2 C506.4,565.6 520.7,563.5 524.3,563 C527.9,562.4 542.2,560.2 545.8,559.6 C549.4,559 563.7,556.7 567.3,556.1 C570.9,555.5 585.2,553.2 588.8,552.6 C592.4,552 606.7,549.7 610.3,549.1 C613.9,548.5 628.2,546.2 631.8,545.6 C635.3,545.1 649.7,542.7 653.2,542.1 C656.8,541.6 671.2,539.2 674.7,538.7 C678.3,538.1 692.6,535.7 696.2,535.2 C699.8,534.6 714.1,532.3 717.7,531.7 C721.3,531.1 735.6,528.8 739.2,528.2 C742.8,527.6 757.1,525.2 760.7,524.8 C764.3,524.4 778.6,523.7 782.2,523.5 C785.8,523.3 800.1,522.4 803.7,522.2 C807.3,522 821.6,521.1 825.2,520.9 C828.8,520.7 843.1,519.8 846.7,519.6 C850.2,519.4 864.6,518.5 868.2,518.3 C871.7,518.1 886.1,516.9 889.6,517 C893.2,517.2 907.5,519.3 911.1,520.1 C914.7,521 929,526.1 932.6,527.3 C936.2,528.5 950.5,533.2 954.1,534.4 C957.7,535.6 973.8,540.3 975.6,541.6 C977.4,542.9 977.4,543.8 975.6,550 C973.8,556.2 957.7,609.5 954.1,616 C950.5,622.5 936.2,626.3 932.6,627.9 C929,629.5 914.7,634.3 911.1,635.4 C907.5,636.4 893.2,639.6 889.6,640.2 C886.1,640.9 871.7,642.8 868.2,643.2 C864.6,643.6 850.2,644.4 846.7,644.5 C843.1,644.6 828.8,644.5 825.2,644.4 C821.6,644.2 807.3,643.1 803.7,642.7 C800.1,642.2 785.8,640 782.2,639.3 C778.6,638.6 764.3,635.1 760.7,633.9 C757.1,632.8 742.8,627.5 739.2,625.7 C735.6,623.9 721.3,613.5 717.7,612 C714.1,610.6 699.8,608.5 696.2,608.7 C692.6,608.9 678.3,613.3 674.7,614.2 C671.2,615.1 656.8,618.6 653.2,619.4 C649.7,620.3 635.3,623.5 631.8,624.3 C628.2,625.1 613.9,628.2 610.3,628.9 C606.7,629.7 592.4,632.5 588.8,633.2 C585.2,633.9 570.9,636.5 567.3,637.2 C563.7,637.8 549.4,640.2 545.8,640.8 C542.2,641.4 527.9,643.5 524.3,644 C520.7,644.5 506.4,646.3 502.8,646.7 C499.2,647.2 484.9,648.8 481.3,649.2 C477.7,649.6 463.4,651 459.8,651.3 C456.3,651.6 441.9,652.8 438.3,653.1 C434.8,653.4 420.4,654.4 416.9,654.6 C413.3,654.8 399,655.6 395.4,655.8 C391.8,656 377.5,656.6 373.9,656.7 C370.3,656.8 356,657.2 352.4,657.2 C348.8,657.3 334.5,657.5 330.9,657.5 C327.3,657.5 313,657.4 309.4,657.2 C305.8,657 291.5,655.6 287.9,655.2 C284.3,654.8 270,653.3 266.4,652.8 C262.8,652.4 248.5,648.4 244.9,650.1 C241.4,651.9 227,670.5 223.4,673.9 C219.9,677.2 205.5,688.5 202,690 C198.4,691.6 184.1,693 180.5,692.5 C176.9,692 162.6,689.6 159,684.3 C155.4,679 141.1,634.1 137.5,628.5 C133.9,623 117.8,619.5 116,617.9 C114.2,616.3 114.2,610.3 116,609.5 Z" fill="#6CCBD2" fill-opacity="0.7" stroke="#0E8C98" stroke-width="4"/>
  <rect id="probe" x="284" y="-20" width="1064" height="150" rx="26" fill="url(#probe-grad)" stroke="#4E565E" stroke-width="3"/>
  <rect x="294" y="116" width="1044" height="12" rx="5" fill="#3E454C"/>
  <line id="needle" x1="-1.6" y1="-161.2" x2="606" y2="552.6" stroke="#5E6670" stroke-width="10" stroke-linecap="butt"/>
  <line x1="-1.6" y1="-161.2" x2="606" y2="552.6" stroke="#D9DEE3" stroke-width="5" stroke-linecap="butt"/>
  <circle id="needle-entry" cx="246.3" cy="130" r="9" fill="#D8432A" stroke="#F6F7F9" stroke-width="3"/>
</g>

<g id="labels"><g class="label emphasis" data-label="Fascia iliaca" data-target="fascia-iliaca"><polyline class="leader-halo" points="300,322 396,576.6"/><polyline class="leader" points="300,322 396,576.6"/><circle class="leader-dot" cx="396" cy="576.6" r="7"/><text x="40" y="300" text-anchor="start"><tspan x="40" dy="0">Fascia iliaca</tspan></text></g><g class="label" data-label="Femoral nerve" data-target="femoral-nerve"><polyline class="leader-halo" points="800,955 838.4,589.2"/><polyline class="leader" points="800,955 838.4,589.2"/><circle class="leader-dot" cx="838.4" cy="589.2" r="7"/><text x="620" y="1010" text-anchor="start"><tspan x="620" dy="0">Femoral nerve</tspan></text></g><g class="label" data-label="Femoral artery" data-target="femoral-artery"><polyline class="leader-halo" points="1300,322 1194,410"/><polyline class="leader" points="1300,322 1194,410"/><circle class="leader-dot" cx="1194" cy="410" r="7"/><text x="1150" y="300" text-anchor="start"><tspan x="1150" dy="0">Femoral artery</tspan></text></g><g class="label" data-label="Iliopsoas" data-target="iliopsoas"><polyline class="leader-halo" points="420,832 452,746"/><polyline class="leader" points="420,832 452,746"/><circle class="leader-dot" cx="452" cy="746" r="7"/><text x="300" y="880" text-anchor="start"><tspan x="300" dy="0">Iliopsoas</tspan></text></g></g>

</svg>
