<svg xmlns="http://www.w3.org/2000/svg" viewBox="0 0 1600 1200" width="1600" height="1200">
<style>
@font-face { font-family: "Plate Sans"; font-weight: 500; src: url("../fonts/inter-latin-500-normal.woff2") format("woff2"); }
@font-face { font-family: "Plate Sans"; font-weight: 700; src: url("../fonts/inter-latin-700-normal.woff2") format("woff2"); }
svg {
  --bg: #F6F7F9;
  --ink: #1C2530;
  --skin-hi: #F7E3D4; --skin: #EDCDB8; --skin-lo: #D9AE95; --skin-deep: #C48F75;
  --lid-line: #7A4E3E; --lash: #3B2A24; --brow: #6B4A3A;
  --sclera: #FBFBF8; --sclera-shade: #E4E2DC;
  --iris-hi: #7FA7A1; --iris: #4F7C78; --iris-lo: #2E4F4D; --pupil: #141A1C;
  --caruncle: #E39A95;
  --bone: #EFE6D2; --bone-edge: #A8977A;
  --deep-grey: #8B8F96;
  --target: #0E8C98; --target-fill: rgba(14, 140, 152, 0.38);
  --danger: #D8432A; --danger-soft: #F08A73;
  --halo: rgba(246, 247, 249, 0.92);
  font-family: "Plate Sans", "Inter", "Helvetica Neue", Arial, sans-serif;
}
/* Dark mode: plates are full-bleed, so labels sit on the art, not on the page.
   Keep the label colours and dim the art a little so it does not glare in a
   dark card. A plate that leaves open background would override --bg here. */
svg.dark { --bg: #16191E; }
svg.dark #anatomy { filter: brightness(0.86) saturate(0.95); }
.plate-bg { fill: var(--bg); }
.label text { font-size: 56px; font-weight: 500; fill: var(--ink); paint-order: stroke; stroke: var(--halo); stroke-width: 14px; stroke-linejoin: round; }
.label.emphasis text { font-weight: 700; fill: var(--target); }
.leader { fill: none; stroke: var(--ink); stroke-width: 3; }
.label.emphasis .leader { stroke: var(--target); stroke-width: 4; }
.leader-halo { fill: none; stroke: var(--halo); stroke-width: 11; stroke-linecap: round; }
.leader-dot { fill: var(--ink); stroke: var(--halo); stroke-width: 4; }
.label.emphasis .leader-dot { fill: var(--target); }
.plate-bg { fill: #F4F1EA; }</style>
<defs>
<linearGradient id="fat" x1="0" y1="0" x2="0" y2="1"><stop offset="0" stop-color="#F6DC8E"/><stop offset="1" stop-color="#EBC565"/></linearGradient>
<linearGradient id="muscle" x1="0" y1="0" x2="0" y2="1"><stop offset="0" stop-color="#B8483F"/><stop offset="1" stop-color="#8A2D28"/></linearGradient>
<radialGradient id="artery" cx="0.4" cy="0.35" r="0.7"><stop offset="0" stop-color="#E26B61"/><stop offset="1" stop-color="#A82A24"/></radialGradient>
<radialGradient id="vein" cx="0.4" cy="0.35" r="0.7"><stop offset="0" stop-color="#6F8FC0"/><stop offset="1" stop-color="#34528A"/></radialGradient>
<linearGradient id="probe-grad" x1="0" y1="0" x2="0" y2="1"><stop offset="0" stop-color="#9AA2AB"/><stop offset="1" stop-color="#6E7780"/></linearGradient>
<clipPath id="frame"><rect x="0" y="0" width="1600" height="1200"/></clipPath>
</defs>
<rect class="plate-bg" width="1600" height="1200"/>

<g id="painting" data-base-sha256="68fd884c03528d85c8dd1c180e87240ec228daebf15f496bcb56caee90e173aa"><image href="base.jpg" x="0" y="2.7" width="1600" height="1194.7" preserveAspectRatio="none"/></g>
<g id="anatomy" opacity="0" clip-path="url(#frame)">
  <path id="skin" d="M-82.8,110 C-81.3,54 -41.6,110 -38.6,110 C-35.7,110 2.6,110 5.5,110 C8.5,110 46.8,110 49.7,110 C52.7,110 90.9,110 93.9,110 C96.8,110 135.1,110 138,110 C141,110 179.3,110 182.2,110 C185.2,110 223.4,110 226.4,110 C229.3,110 267.6,110 270.6,110 C273.5,110 311.8,110 314.7,110 C317.7,110 356,110 358.9,110 C361.8,110 400.1,110 403.1,110 C406,110 444.3,110 447.2,110 C450.2,110 488.5,110 491.4,110 C494.4,110 532.6,110 535.6,110 C538.5,110 576.8,110 579.8,110 C582.7,110 621,110 623.9,110 C626.9,110 665.1,110 668.1,110 C671,110 709.3,110 712.3,110 C715.2,110 753.5,110 756.4,110 C759.4,110 797.7,110 800.6,110 C803.5,110 841.8,110 844.8,110 C847.7,110 886,110 888.9,110 C891.9,110 930.2,110 933.1,110 C936.1,110 974.3,110 977.3,110 C980.2,110 1018.5,110 1021.4,110 C1024.4,110 1062.7,110 1065.6,110 C1068.6,110 1106.8,110 1109.8,110 C1112.7,110 1151,110 1154,110 C1156.9,110 1195.2,110 1198.1,110 C1201.1,110 1239.4,110 1242.3,110 C1245.2,110 1283.5,110 1286.5,110 C1289.4,110 1327.7,110 1330.6,110 C1333.6,110 1371.9,110 1374.8,110 C1377.8,110 1416,110 1419,110 C1421.9,110 1460.2,110 1463.1,110 C1466.1,110 1504.4,110 1507.3,110 C1510.3,110 1548.5,110 1551.5,110 C1554.4,110 1592.7,110 1595.7,110 C1598.6,110 1636.9,110 1639.8,110 C1642.8,110 1682.5,54 1684,110 C1685.5,166 1685.5,1734 1684,1790 C1682.5,1846 1642.8,1790 1639.8,1790 C1636.9,1790 1598.6,1790 1595.7,1790 C1592.7,1790 1554.4,1790 1551.5,1790 C1548.5,1790 1510.3,1790 1507.3,1790 C1504.4,1790 1466.1,1790 1463.1,1790 C1460.2,1790 1421.9,1790 1419,1790 C1416,1790 1377.8,1790 1374.8,1790 C1371.9,1790 1333.6,1790 1330.6,1790 C1327.7,1790 1289.4,1790 1286.5,1790 C1283.5,1790 1245.2,1790 1242.3,1790 C1239.4,1790 1201.1,1790 1198.1,1790 C1195.2,1790 1156.9,1790 1154,1790 C1151,1790 1112.7,1790 1109.8,1790 C1106.8,1790 1068.6,1790 1065.6,1790 C1062.7,1790 1024.4,1790 1021.4,1790 C1018.5,1790 980.2,1790 977.3,1790 C974.3,1790 936.1,1790 933.1,1790 C930.2,1790 891.9,1790 888.9,1790 C886,1790 847.7,1790 844.8,1790 C841.8,1790 803.5,1790 800.6,1790 C797.7,1790 759.4,1790 756.4,1790 C753.5,1790 715.2,1790 712.3,1790 C709.3,1790 671,1790 668.1,1790 C665.1,1790 626.9,1790 623.9,1790 C621,1790 582.7,1790 579.8,1790 C576.8,1790 538.5,1790 535.6,1790 C532.6,1790 494.4,1790 491.4,1790 C488.5,1790 450.2,1790 447.2,1790 C444.3,1790 406,1790 403.1,1790 C400.1,1790 361.8,1790 358.9,1790 C356,1790 317.7,1790 314.7,1790 C311.8,1790 273.5,1790 270.6,1790 C267.6,1790 229.3,1790 226.4,1790 C223.4,1790 185.2,1790 182.2,1790 C179.3,1790 141,1790 138,1790 C135.1,1790 96.8,1790 93.9,1790 C90.9,1790 52.7,1790 49.7,1790 C46.8,1790 8.5,1790 5.5,1790 C2.6,1790 -35.7,1790 -38.6,1790 C-41.6,1790 -81.3,1846 -82.8,1790 C-84.3,1734 -84.3,166 -82.8,110 Z" fill="#E7BFA7"/>
  <path id="subcutaneous-fat" d="M-82.8,154.8 C-81.3,100.3 -41.6,154.8 -38.6,154.8 C-35.7,154.8 2.6,154.8 5.5,154.8 C8.5,154.8 46.8,154.8 49.7,154.8 C52.7,154.8 90.9,154.8 93.9,154.8 C96.8,154.8 135.1,154.8 138,154.8 C141,154.8 179.3,154.8 182.2,154.8 C185.2,154.8 223.4,154.8 226.4,154.8 C229.3,154.8 267.6,154.8 270.6,154.8 C273.5,154.8 311.8,154.8 314.7,154.8 C317.7,154.8 356,154.8 358.9,154.8 C361.8,154.8 400.1,154.8 403.1,154.8 C406,154.8 444.3,154.8 447.2,154.8 C450.2,154.8 488.5,154.8 491.4,154.8 C494.4,154.8 532.6,154.8 535.6,154.8 C538.5,154.8 576.8,154.8 579.8,154.8 C582.7,154.8 621,154.8 623.9,154.8 C626.9,154.8 665.1,154.8 668.1,154.8 C671,154.8 709.3,154.8 712.3,154.8 C715.2,154.8 753.5,154.8 756.4,154.8 C759.4,154.8 797.7,154.8 800.6,154.8 C803.5,154.8 841.8,154.8 844.8,154.8 C847.7,154.8 886,154.8 888.9,154.8 C891.9,154.8 930.2,154.8 933.1,154.8 C936.1,154.8 974.3,154.8 977.3,154.8 C980.2,154.8 1018.5,154.8 1021.4,154.8 C1024.4,154.8 1062.7,154.8 1065.6,154.8 C1068.6,154.8 1106.8,154.8 1109.8,154.8 C1112.7,154.8 1151,154.8 1154,154.8 C1156.9,154.8 1195.2,154.8 1198.1,154.8 C1201.1,154.8 1239.4,154.8 1242.3,154.8 C1245.2,154.8 1283.5,154.8 1286.5,154.8 C1289.4,154.8 1327.7,154.8 1330.6,154.8 C1333.6,154.8 1371.9,154.8 1374.8,154.8 C1377.8,154.8 1416,154.8 1419,154.8 C1421.9,154.8 1460.2,154.8 1463.1,154.8 C1466.1,154.8 1504.4,154.8 1507.3,154.8 C1510.3,154.8 1548.5,154.8 1551.5,154.8 C1554.4,154.8 1592.7,154.8 1595.7,154.8 C1598.6,154.8 1636.9,154.8 1639.8,154.8 C1642.8,154.8 1682.5,100.3 1684,154.8 C1685.5,209.3 1685.5,1735.5 1684,1790 C1682.5,1844.5 1642.8,1790 1639.8,1790 C1636.9,1790 1598.6,1790 1595.7,1790 C1592.7,1790 1554.4,1790 1551.5,1790 C1548.5,1790 1510.3,1790 1507.3,1790 C1504.4,1790 1466.1,1790 1463.1,1790 C1460.2,1790 1421.9,1790 1419,1790 C1416,1790 1377.8,1790 1374.8,1790 C1371.9,1790 1333.6,1790 1330.6,1790 C1327.7,1790 1289.4,1790 1286.5,1790 C1283.5,1790 1245.2,1790 1242.3,1790 C1239.4,1790 1201.1,1790 1198.1,1790 C1195.2,1790 1156.9,1790 1154,1790 C1151,1790 1112.7,1790 1109.8,1790 C1106.8,1790 1068.6,1790 1065.6,1790 C1062.7,1790 1024.4,1790 1021.4,1790 C1018.5,1790 980.2,1790 977.3,1790 C974.3,1790 936.1,1790 933.1,1790 C930.2,1790 891.9,1790 888.9,1790 C886,1790 847.7,1790 844.8,1790 C841.8,1790 803.5,1790 800.6,1790 C797.7,1790 759.4,1790 756.4,1790 C753.5,1790 715.2,1790 712.3,1790 C709.3,1790 671,1790 668.1,1790 C665.1,1790 626.9,1790 623.9,1790 C621,1790 582.7,1790 579.8,1790 C576.8,1790 538.5,1790 535.6,1790 C532.6,1790 494.4,1790 491.4,1790 C488.5,1790 450.2,1790 447.2,1790 C444.3,1790 406,1790 403.1,1790 C400.1,1790 361.8,1790 358.9,1790 C356,1790 317.7,1790 314.7,1790 C311.8,1790 273.5,1790 270.6,1790 C267.6,1790 229.3,1790 226.4,1790 C223.4,1790 185.2,1790 182.2,1790 C179.3,1790 141,1790 138,1790 C135.1,1790 96.8,1790 93.9,1790 C90.9,1790 52.7,1790 49.7,1790 C46.8,1790 8.5,1790 5.5,1790 C2.6,1790 -35.7,1790 -38.6,1790 C-41.6,1790 -81.3,1844.5 -82.8,1790 C-84.3,1735.5 -84.3,209.3 -82.8,154.8 Z" fill="url(#fat)"/>
  <path id="deep-fascia" d="M-82.8,241.6 C-81.3,241.3 -41.6,241.6 -38.6,241.6 C-35.7,241.6 2.6,241.6 5.5,241.6 C8.5,241.6 46.8,241.6 49.7,241.6 C52.7,241.6 90.9,241.6 93.9,241.6 C96.8,241.6 135.1,241.6 138,241.6 C141,241.6 179.3,241.6 182.2,241.6 C185.2,241.6 223.4,241.6 226.4,241.6 C229.3,241.6 267.6,241.6 270.6,241.6 C273.5,241.6 311.8,241.6 314.7,241.6 C317.7,241.6 356,241.6 358.9,241.6 C361.8,241.6 400.1,241.6 403.1,241.6 C406,241.6 444.3,241.6 447.2,241.6 C450.2,241.6 488.5,241.6 491.4,241.6 C494.4,241.6 532.6,241.6 535.6,241.6 C538.5,241.6 576.8,241.6 579.8,241.6 C582.7,241.6 621,241.6 623.9,241.6 C626.9,241.6 665.1,241.6 668.1,241.6 C671,241.6 709.3,241.6 712.3,241.6 C715.2,241.6 753.5,241.6 756.4,241.6 C759.4,241.6 797.7,241.6 800.6,241.6 C803.5,241.6 841.8,241.6 844.8,241.6 C847.7,241.6 886,241.6 888.9,241.6 C891.9,241.6 930.2,241.6 933.1,241.6 C936.1,241.6 974.3,241.6 977.3,241.6 C980.2,241.6 1018.5,241.6 1021.4,241.6 C1024.4,241.6 1062.7,241.6 1065.6,241.6 C1068.6,241.6 1106.8,241.6 1109.8,241.6 C1112.7,241.6 1151,241.6 1154,241.6 C1156.9,241.6 1195.2,241.6 1198.1,241.6 C1201.1,241.6 1239.4,241.6 1242.3,241.6 C1245.2,241.6 1283.5,241.6 1286.5,241.6 C1289.4,241.6 1327.7,241.6 1330.6,241.6 C1333.6,241.6 1371.9,241.6 1374.8,241.6 C1377.8,241.6 1416,241.6 1419,241.6 C1421.9,241.6 1460.2,241.6 1463.1,241.6 C1466.1,241.6 1504.4,241.6 1507.3,241.6 C1510.3,241.6 1548.5,241.6 1551.5,241.6 C1554.4,241.6 1592.7,241.6 1595.7,241.6 C1598.6,241.6 1636.9,241.6 1639.8,241.6 C1642.8,241.6 1682.5,241.3 1684,241.6 C1685.5,241.9 1685.5,249.7 1684,250 C1682.5,250.3 1642.8,250 1639.8,250 C1636.9,250 1598.6,250 1595.7,250 C1592.7,250 1554.4,250 1551.5,250 C1548.5,250 1510.3,250 1507.3,250 C1504.4,250 1466.1,250 1463.1,250 C1460.2,250 1421.9,250 1419,250 C1416,250 1377.8,250 1374.8,250 C1371.9,250 1333.6,250 1330.6,250 C1327.7,250 1289.4,250 1286.5,250 C1283.5,250 1245.2,250 1242.3,250 C1239.4,250 1201.1,250 1198.1,250 C1195.2,250 1156.9,250 1154,250 C1151,250 1112.7,250 1109.8,250 C1106.8,250 1068.6,250 1065.6,250 C1062.7,250 1024.4,250 1021.4,250 C1018.5,250 980.2,250 977.3,250 C974.3,250 936.1,250 933.1,250 C930.2,250 891.9,250 888.9,250 C886,250 847.7,250 844.8,250 C841.8,250 803.5,250 800.6,250 C797.7,250 759.4,250 756.4,250 C753.5,250 715.2,250 712.3,250 C709.3,250 671,250 668.1,250 C665.1,250 626.9,250 623.9,250 C621,250 582.7,250 579.8,250 C576.8,250 538.5,250 535.6,250 C532.6,250 494.4,250 491.4,250 C488.5,250 450.2,250 447.2,250 C444.3,250 406,250 403.1,250 C400.1,250 361.8,250 358.9,250 C356,250 317.7,250 314.7,250 C311.8,250 273.5,250 270.6,250 C267.6,250 229.3,250 226.4,250 C223.4,250 185.2,250 182.2,250 C179.3,250 141,250 138,250 C135.1,250 96.8,250 93.9,250 C90.9,250 52.7,250 49.7,250 C46.8,250 8.5,250 5.5,250 C2.6,250 -35.7,250 -38.6,250 C-41.6,250 -81.3,250.3 -82.8,250 C-84.3,249.7 -84.3,241.9 -82.8,241.6 Z" fill="#F8F6F0"/>
  <path id="semitendinosus" d="M-82.8,250 C-40.6,224.3 374.8,240.7 424,250 C473.2,259.3 503.3,341 508,362 C512.7,383 491.7,483.3 480,502 C468.3,520.7 414.9,581.3 368,586 C321.1,590.7 -45.2,586 -82.8,558 C-120.4,530 -125,275.7 -82.8,250 Z" fill="url(#muscle)" stroke="#F4EFE6" stroke-width="4"/>
  <path id="semimembranosus" d="M-82.8,569.2 C-46.2,528.1 312.2,586.5 356.8,597.2 C401.4,607.9 443.1,675.6 452,698 C460.9,720.4 467.9,838 463.2,866 C458.5,894 441.5,1015.3 396,1034 C350.5,1052.7 -42.9,1128.7 -82.8,1090 C-122.7,1051.3 -119.4,610.3 -82.8,569.2 Z" fill="url(#muscle)" stroke="#F4EFE6" stroke-width="4"/>
  <path id="biceps" d="M1684,250 C1637.3,196.3 1177.7,240.7 1124,250 C1070.3,259.3 1046.1,338.7 1040,362 C1033.9,385.3 1044.2,502 1051.2,530 C1058.2,558 1106.3,672.3 1124,698 C1141.7,723.7 1217.3,821.7 1264,838 C1310.7,854.3 1649,943 1684,894 C1719,845 1730.7,303.7 1684,250 Z" fill="url(#muscle)" stroke="#F4EFE6" stroke-width="4"/>
  <path id="sheath" d="M575.2,754 C576.5,732.4 592.5,657 608.8,642 C625.1,627 691,638.3 715.2,625.2 C739.4,612.1 793.8,547.6 816,530 C838.2,512.4 880.8,478.6 905.6,474 C930.4,469.4 1012.5,479 1028.8,490.8 C1045.1,502.6 1050.8,553.9 1045.6,574.8 C1040.4,595.7 996.4,647.8 984,670 C971.6,692.2 958.8,744.3 939.2,765.2 C919.6,786.1 844.7,838.1 816,849.2 C787.3,860.3 718.3,863 692.8,860.4 C667.3,857.8 611.3,839.2 597.6,826.8 C583.9,814.4 573.9,775.6 575.2,754 Z" fill="#E9DFC4" stroke="#F8F6F0" stroke-width="5"/>
  <ellipse id="tibial-nerve" cx="732" cy="742.8" rx="128.8" ry="89.6" fill="#EFCB5A" stroke="#B8962E" stroke-width="4"/>
  <ellipse id="peroneal-nerve" cx="928" cy="558" rx="78.4" ry="61.6" fill="#EFCB5A" stroke="#B8962E" stroke-width="4"/>
  <ellipse id="popliteal-vein" cx="603.2" cy="955.6" rx="112" ry="89.6" fill="url(#vein)" stroke="#2F4A78" stroke-width="4"/>
  <ellipse id="popliteal-artery" cx="468.8" cy="1056.4" rx="89.6" ry="89.6" fill="url(#artery)" stroke="#8E211D" stroke-width="6"/>
  <line x1="0" y1="110" x2="1600" y2="110" stroke="#B98A74" stroke-width="4"/>
</g>

<g class="marking">
  <path id="spread" d="M547.2,759.6 C548.5,733.5 568.1,644.1 586.4,625.2 C604.7,606.3 678.5,611.6 704,597.2 C729.5,582.8 781.3,519.6 804.8,502 C828.3,484.4 876.9,449.9 905.6,446 C934.3,442.1 1031.6,452.7 1051.2,468.4 C1070.8,484.1 1078.2,554.9 1073.6,580.4 C1069,605.9 1025.7,662.6 1012,686.8 C998.3,711 978.2,765.4 956,787.6 C933.8,809.8 853,865.4 821.6,877.2 C790.2,889 715.9,891.7 687.2,888.4 C658.5,885.1 591.5,864.2 575.2,849.2 C558.9,834.2 545.9,785.7 547.2,759.6 Z" fill="#6CCBD2" fill-opacity="0.55" stroke="#0E8C98" stroke-width="3"/>
  <ellipse id="tibial-outline" cx="732" cy="742.8" rx="128.8" ry="89.6" fill="none" stroke="#B8962E" stroke-width="4"/>
  <ellipse id="peroneal-outline" cx="928" cy="558" rx="78.4" ry="61.6" fill="none" stroke="#B8962E" stroke-width="4"/>
  <rect id="probe" x="-100" y="-60" width="1420" height="170" rx="34" fill="url(#probe-grad)" stroke="#4E565E" stroke-width="3"/>
  <rect x="-100" y="94" width="1402" height="14" rx="6" fill="#3E454C"/>
  <line id="needle" x1="1766.9" y1="-136.4" x2="888.8" y2="726" stroke="#5E6670" stroke-width="10"/>
  <line x1="1766.9" y1="-136.4" x2="888.8" y2="726" stroke="#D9DEE3" stroke-width="5"/>
  <circle id="needle-entry" cx="1516" cy="110" r="9" fill="#D8432A" stroke="#F6F7F9" stroke-width="3"/>
  <circle id="needle-tip" cx="888.8" cy="726" r="4" fill="#000" opacity="0"/>
</g>

<g id="labels"><g class="label emphasis" data-label="Tibial nerve" data-target="tibial-nerve"><polyline class="leader-halo" points="330,720 664.8,765.2"/><polyline class="leader" points="330,720 664.8,765.2"/><circle class="leader-dot" cx="664.8" cy="765.2" r="7"/><text x="40" y="760" text-anchor="start"><tspan x="40" dy="0">Tibial nerve</tspan></text></g><g class="label emphasis" data-label="Common peroneal nerve" data-target="peroneal-nerve"><polyline class="leader-halo" points="1060,390 972.8,552.4"/><polyline class="leader" points="1060,390 972.8,552.4"/><circle class="leader-dot" cx="972.8" cy="552.4" r="7"/><text x="1040" y="330" text-anchor="start"><tspan x="1040" dy="0">Common peroneal</tspan><tspan x="1040" dy="66">nerve</tspan></text></g><g class="label" data-label="Popliteal vein" data-target="popliteal-vein"><polyline class="leader-halo" points="810,960 698.4,938.8"/><polyline class="leader" points="810,960 698.4,938.8"/><circle class="leader-dot" cx="698.4" cy="938.8" r="7"/><text x="800" y="990" text-anchor="start"><tspan x="800" dy="0">Popliteal vein</tspan></text></g><g class="label" data-label="Popliteal artery" data-target="popliteal-artery"><polyline class="leader-halo" points="650,1120 524.8,1090"/><polyline class="leader" points="650,1120 524.8,1090"/><circle class="leader-dot" cx="524.8" cy="1090" r="7"/><text x="640" y="1160" text-anchor="start"><tspan x="640" dy="0">Popliteal artery</tspan></text></g><g class="label" data-label="Biceps femoris" data-target="biceps"><polyline class="leader-halo" points="1230,860 1348,726"/><polyline class="leader" points="1230,860 1348,726"/><circle class="leader-dot" cx="1348" cy="726" r="7"/><text x="1120" y="900" text-anchor="start"><tspan x="1120" dy="0">Biceps femoris</tspan></text></g></g>

</svg>
